<svg version="1" xmlns="http://www.w3.org/2000/svg" width="213.333" height="213.333" viewBox="0 0 160.000000 160.000000"><path d="M73 7.3c-.3.3-2.4.7-4.8 1.1-12.5 1.7-28.1 14.8-30.9 25.9-.9 3.9-1 22.1-.1 25.5.8 2.7.6 3.6-.8 4.6-1.4 1.1-1.6 2.3-1.1 7.2.7 7 3.4 16.3 4.7 16.5.6.1 1.4.2 1.9.3.5 0 1.3.4 1.7.8.4.5-3.4.8-8.4.8-8.3 0-9.2.2-10.3 2.1-1 2-.8 12.6.6 32.1.4 5.1.2 6-2.1 8.5-4.2 4.5-8.5 14.1-10.1 22.5-.1 1-.4 2.3-.5 3-.2 1 13.1 1.4 68.3 1.6 67.4.2 68.7.2 69.2-1.7.3-1.1.2-2.2-.1-2.6-.3-.3-.7-1.1-.8-1.8-.9-5.3-7.9-19.6-10.3-21.2-1-.6-.9-4.4.5-24 1-13.5.6-16.8-2.2-17.9-1-.4-5.2-.7-9.6-.7-4.4 0-7.8-.5-7.8-1 0-.6.4-.8.9-.5 2.8 1.7 5.9-5.6 7.7-18 .4-3.5.2-4.4-1.5-5.6-1.2-.8-1.8-1.7-1.6-2 1.6-1.5 2.3-17 1.2-24.3-2.2-14.5-11.2-24.3-26.7-29C94.8 8 74.1 6.2 73 7.3z"/></svg>