<svg xmlns="http://www.w3.org/2000/svg" width="1052" height="1052" preserveAspectRatio="xMidYMid meet" version="1.0" viewBox="0 0 789 789"><metadata>Created by potrace 1.11, written by Peter Selinger 2001-2013</metadata><g fill="#000" stroke="none"><path d="M3647 7813 c-6 -9 -129 -30 -149 -25 -5 1 -8 -2 -8 -8 0 -5 -7 -7 -15 -4 -8 4 -22 1 -29 -5 -10 -8 -16 -9 -21 -1 -3 6 -11 7 -17 4 -11 -7 -47 -14 -78 -16 -8 0 -19 -4 -25 -8 -5 -4 -43 -7 -82 -6 -53 1 -74 -3 -78 -13 -4 -10 -8 -11 -19 -2 -11 9 -18 8 -30 -4 -9 -9 -16 -12 -16 -8 0 5 -35 3 -77 -5 -43 -8 -85 -15 -93 -17 -14 -2 -25 -6 -67 -22 -10 -3 -22 -5 -27 -4 -5 1 -16 -1 -25 -5 -9 -4 -18 -8 -21 -9 -31 -8 -50 -18 -50 -26 0 -6 -4 -8 -10 -4 -5 3 -26 -2 -47 -11 -21 -10 -41 -18 -45 -19 -5 -2 -10 -4 -13 -5 -6 -3 -12 -5 -42 -15 -13 -4 -23 -11 -23 -16 0 -5 -7 -9 -15 -9 -8 0 -15 -4 -15 -10 0 -5 -7 -10 -15 -10 -8 0 -15 -4 -15 -9 0 -6 -9 -8 -20 -6 -13 2 -20 -2 -20 -11 0 -8 -3 -13 -7 -12 -9 3 -84 -46 -114 -74 -11 -10 -23 -18 -28 -18 -5 0 -12 -8 -15 -18 -3 -10 -19 -26 -36 -35 -16 -10 -30 -23 -30 -28 0 -6 -4 -7 -10 -4 -5 3 -10 2 -10 -3 0 -15 -57 -82 -64 -75 -3 3 -6 -1 -6 -10 0 -10 -5 -17 -11 -17 -5 0 -8 -4 -5 -8 3 -5 -4 -14 -14 -22 -10 -8 -17 -17 -14 -22 3 -4 -2 -11 -10 -14 -9 -3 -13 -10 -10 -15 3 -5 1 -9 -4 -9 -6 0 -13 -11 -16 -25 -4 -14 -11 -23 -16 -20 -5 3 -12 -5 -16 -19 -5 -22 -9 -23 -52 -19 -26 2 -51 8 -56 13 -5 5 -19 4 -32 0 -15 -6 -24 -6 -24 0 0 6 -11 3 -25 -6 -20 -13 -25 -13 -25 -3 0 9 -3 10 -8 4 -4 -5 -18 -11 -32 -13 -14 -2 -34 -9 -45 -16 -11 -7 -28 -12 -37 -10 -10 1 -18 -2 -18 -7 0 -5 -7 -9 -15 -9 -8 0 -15 -4 -15 -10 0 -5 -7 -7 -15 -4 -8 4 -17 -1 -21 -10 -3 -9 -10 -13 -15 -10 -5 3 -9 -3 -9 -12 0 -10 -3 -14 -6 -11 -4 4 -19 -2 -34 -13 -16 -11 -30 -20 -33 -20 -2 0 -27 -22 -54 -50 -28 -27 -49 -50 -47 -50 2 0 -17 -20 -41 -44 -25 -24 -42 -45 -40 -48 2 -2 -7 -17 -21 -33 -13 -16 -27 -39 -30 -52 -4 -12 -9 -21 -13 -19 -3 2 -19 -24 -36 -57 -16 -34 -33 -64 -36 -67 -3 -3 -12 -23 -20 -45 -7 -22 -19 -45 -26 -51 -9 -8 -10 -13 -1 -22 9 -9 9 -12 0 -12 -7 0 -12 -8 -12 -18 0 -10 -3 -22 -7 -26 -5 -4 -9 -12 -9 -17 -1 -5 -3 -11 -4 -14 -1 -3 -3 -13 -5 -22 -2 -20 -12 -50 -25 -75 -6 -11 -5 -18 2 -20 6 -2 4 -10 -6 -21 -13 -12 -14 -17 -4 -17 8 0 9 -3 3 -8 -5 -4 -11 -18 -13 -32 -5 -52 -8 -65 -15 -77 -4 -6 -3 -14 3 -18 7 -4 7 -13 -1 -26 -6 -11 -8 -27 -5 -35 3 -8 0 -14 -6 -14 -7 0 -6 -5 2 -15 9 -10 9 -15 1 -15 -6 0 -11 -18 -11 -44 0 -25 -5 -48 -10 -51 -7 -4 -7 -13 0 -24 6 -12 5 -22 -2 -29 -9 -9 -9 -12 0 -12 9 0 10 -5 3 -19 -6 -10 -7 -21 -4 -25 9 -9 11 -46 3 -46 -9 0 -6 -32 4 -48 4 -7 2 -12 -5 -12 -8 0 -8 -4 -1 -13 7 -8 7 -18 1 -27 -11 -18 -10 -291 1 -310 5 -7 5 -23 0 -35 -5 -12 -5 -28 0 -35 5 -7 4 -24 0 -36 -6 -14 -5 -26 0 -29 7 -4 6 -13 0 -25 -7 -13 -7 -21 0 -25 8 -5 7 -11 -1 -21 -9 -11 -9 -14 0 -14 8 0 9 -5 1 -19 -7 -14 -7 -22 0 -26 8 -5 7 -11 -1 -21 -7 -9 -8 -14 -1 -14 8 0 11 -135 12 -437 0 -273 4 -439 10 -441 6 -2 6 -11 0 -23 -6 -10 -7 -19 -2 -19 5 0 7 -12 4 -26 -3 -15 -10 -23 -17 -20 -7 2 -21 -1 -31 -9 -10 -7 -23 -11 -29 -9 -6 3 -20 -5 -32 -16 -12 -11 -25 -20 -29 -20 -4 0 -17 -11 -30 -25 -13 -14 -21 -25 -19 -25 3 0 -4 -9 -15 -20 -11 -11 -20 -27 -20 -35 0 -8 -4 -15 -9 -15 -12 0 -34 -57 -27 -68 3 -6 0 -12 -8 -15 -8 -3 -13 -14 -12 -24 2 -10 0 -25 -5 -34 -5 -9 -11 -43 -13 -75 -3 -32 -10 -60 -16 -62 -5 -2 -8 -7 -6 -11 3 -4 6 -81 7 -172 1 -90 6 -169 11 -176 6 -7 5 -14 -2 -18 -8 -5 -8 -11 1 -21 9 -11 8 -14 -2 -14 -11 0 -11 -2 1 -10 8 -5 11 -10 5 -10 -5 0 -3 -5 5 -10 11 -7 11 -10 2 -10 -9 0 -10 -5 -2 -19 7 -14 6 -21 -3 -24 -8 -4 -7 -6 3 -6 11 -1 15 -15 16 -59 2 -66 8 -109 17 -119 4 -3 2 -12 -4 -20 -9 -10 -8 -13 2 -13 8 0 14 -10 15 -22 2 -32 14 -100 21 -118 6 -15 7 -19 14 -50 2 -8 7 -17 11 -20 4 -3 9 -15 11 -25 9 -49 99 -194 120 -195 5 0 15 -7 24 -15 8 -8 19 -13 24 -10 5 4 9 1 9 -4 0 -6 9 -11 20 -11 11 0 20 -3 20 -7 0 -5 31 -7 68 -6 38 1 73 -2 78 -5 18 -13 34 -61 23 -68 -8 -5 -8 -9 0 -14 7 -3 13 -25 15 -47 1 -21 6 -45 10 -51 4 -6 9 -24 11 -39 3 -16 9 -45 14 -65 5 -21 7 -38 4 -38 -3 0 -1 -6 5 -12 5 -7 12 -24 14 -38 1 -14 9 -31 16 -38 7 -8 10 -18 7 -23 -4 -5 0 -9 7 -9 9 0 9 -3 -2 -10 -10 -6 -11 -10 -2 -10 6 0 12 -9 12 -20 0 -11 5 -20 12 -20 6 0 8 -3 5 -7 -4 -3 0 -17 8 -30 12 -17 12 -23 3 -23 -9 0 -10 -3 -2 -8 10 -6 27 -45 29 -65 0 -4 5 -11 10 -15 6 -4 11 -14 13 -22 4 -20 24 -62 38 -80 7 -8 13 -17 13 -20 0 -3 6 -21 12 -40 7 -19 12 -37 12 -40 0 -3 8 -17 19 -32 11 -16 16 -28 11 -28 -4 0 -2 -4 5 -9 7 -4 15 -14 17 -22 9 -38 18 -59 27 -59 5 0 7 -4 4 -9 -3 -5 1 -11 9 -15 8 -3 15 -13 15 -23 0 -10 11 -31 25 -47 13 -16 27 -37 30 -47 4 -11 11 -19 16 -19 5 0 9 -4 9 -10 0 -5 8 -19 17 -29 9 -11 18 -28 19 -37 1 -9 12 -23 23 -31 12 -8 19 -19 16 -24 -4 -5 1 -12 9 -15 9 -3 16 -13 16 -21 0 -8 4 -11 10 -8 5 3 10 -1 10 -10 0 -9 4 -13 10 -10 5 3 10 0 10 -8 0 -7 11 -20 25 -27 14 -7 25 -22 25 -32 0 -10 5 -18 11 -18 6 0 17 -7 25 -15 9 -8 13 -15 10 -15 -6 0 48 -54 87 -87 14 -12 28 -19 31 -16 3 4 6 -1 6 -11 0 -9 4 -15 9 -12 5 3 11 -1 15 -9 3 -8 14 -15 25 -15 15 0 19 -5 14 -17 -4 -10 -2 -14 4 -10 6 4 21 -2 33 -13 13 -11 27 -20 32 -20 5 0 6 -5 3 -10 -3 -6 1 -10 10 -10 20 0 47 -25 37 -35 -4 -4 0 -5 8 -4 8 2 36 -11 62 -29 26 -17 51 -32 57 -32 6 0 11 -6 11 -14 0 -8 8 -13 17 -12 10 2 26 -5 37 -16 11 -10 28 -18 37 -18 10 0 22 -7 27 -16 5 -9 12 -15 15 -15 4 1 23 -5 42 -13 20 -9 37 -14 40 -13 2 1 10 -7 18 -17 8 -11 19 -16 25 -12 7 4 12 2 12 -3 0 -6 6 -11 14 -11 8 0 17 -7 20 -16 5 -12 10 -13 19 -6 9 8 16 6 26 -9 7 -12 15 -18 18 -15 3 3 18 -1 34 -10 16 -8 29 -11 29 -7 0 5 4 2 8 -4 5 -7 20 -14 35 -15 15 -1 27 -6 27 -10 0 -4 9 -8 19 -8 11 0 22 -6 24 -12 4 -10 6 -10 6 -1 1 9 12 6 37 -8 20 -11 43 -18 51 -15 7 3 21 -2 31 -12 10 -10 30 -16 45 -15 15 1 27 -3 27 -8 0 -6 5 -7 10 -4 6 3 13 -1 16 -10 5 -12 9 -13 20 -4 11 9 14 9 14 0 0 -7 4 -10 9 -6 5 3 12 1 16 -4 3 -6 12 -8 19 -5 8 3 17 1 21 -5 3 -6 15 -11 26 -11 10 0 19 -5 19 -11 0 -8 4 -8 14 0 9 8 16 8 20 2 4 -6 13 -8 20 -5 8 3 17 0 21 -5 3 -6 11 -9 16 -6 5 4 9 2 9 -3 0 -4 24 -9 53 -11 28 -1 54 -6 55 -12 2 -5 17 -9 33 -9 16 0 29 -5 29 -11 0 -8 4 -8 13 0 10 8 17 7 25 -1 9 -9 12 -9 12 0 0 10 5 10 20 2 14 -7 20 -8 20 0 0 6 17 2 39 -9 29 -15 41 -17 50 -8 7 7 11 8 11 0 0 -7 42 -11 122 -12 67 -1 128 -6 134 -12 8 -7 14 -7 19 1 4 6 13 7 23 2 18 -9 75 -9 217 2 194 16 238 22 265 36 17 9 21 9 15 0 -6 -9 -3 -9 12 -1 11 6 23 8 25 5 3 -2 18 1 34 7 16 7 32 13 37 14 4 2 8 3 10 5 1 1 11 3 22 4 33 5 50 11 56 19 3 5 17 10 30 12 27 4 91 27 99 36 3 3 20 11 38 18 17 8 32 18 32 23 0 5 5 6 10 3 6 -3 10 -1 10 4 0 6 3 10 8 9 16 -4 52 14 46 24 -4 6 -2 8 4 4 12 -7 62 13 62 26 0 4 6 8 13 8 8 0 24 9 37 20 21 18 35 24 43 18 2 -2 15 10 30 26 15 16 27 25 27 21 0 -5 7 0 15 11 8 10 15 15 15 10 0 -5 16 7 35 27 20 20 37 36 38 35 1 -1 11 3 22 10 11 6 16 12 11 12 -5 0 12 16 38 35 25 20 46 40 46 46 0 6 4 8 8 5 5 -3 15 6 22 19 7 13 17 22 22 19 4 -3 8 2 8 11 0 9 3 14 8 12 7 -5 26 11 31 28 9 27 14 35 20 31 3 -2 29 25 56 61 28 36 57 73 66 83 8 9 18 24 22 33 3 9 11 17 17 17 5 0 10 7 10 15 0 8 5 15 12 15 6 0 9 3 6 6 -3 3 5 16 18 29 13 13 24 31 24 40 0 9 4 14 9 11 5 -3 14 8 20 24 5 17 14 30 20 30 5 0 12 14 16 30 4 17 11 28 16 24 5 -3 9 2 9 11 0 9 9 25 20 37 10 12 17 25 14 30 -3 4 0 8 6 8 6 0 8 5 5 10 -3 6 -2 10 4 10 10 0 17 11 60 97 14 26 31 52 38 56 7 5 11 12 8 17 -3 5 -1 11 5 15 6 4 8 10 5 15 -3 4 2 11 11 14 8 3 12 10 9 16 -3 5 -1 10 4 10 6 0 10 3 9 8 -1 4 9 30 22 57 12 28 23 56 23 63 0 6 5 12 10 12 6 0 7 3 4 6 -3 4 -1 16 5 28 7 11 14 35 16 51 2 17 9 39 17 51 9 14 10 26 3 37 -6 11 -5 17 1 17 6 0 10 85 11 225 0 169 4 232 15 258 14 33 24 72 29 109 1 10 5 20 8 24 4 3 4 12 1 20 -3 8 -1 14 4 14 5 0 10 8 11 18 2 24 10 66 12 70 2 1 4 7 5 12 1 6 3 11 5 13 1 1 3 11 5 22 5 27 10 47 20 68 4 9 5 24 2 32 -4 8 -2 17 4 20 5 4 7 11 4 16 -4 5 -2 9 3 9 5 0 8 11 7 25 -2 14 1 25 7 25 6 0 7 7 4 15 -3 9 -2 23 3 33 18 34 34 101 28 116 -4 9 -1 16 4 16 6 0 9 9 6 19 -3 11 1 22 8 25 17 6 11 96 -10 135 -9 18 -14 35 -11 40 3 4 -8 23 -24 42 -29 34 -39 69 -19 69 5 0 8 4 4 9 -3 5 -1 12 5 16 6 4 8 11 5 16 -4 5 -1 9 5 9 6 0 9 4 5 9 -3 5 -1 12 5 16 6 4 8 11 5 16 -4 5 -2 9 2 9 5 0 10 14 11 32 2 17 7 37 12 43 5 7 7 15 3 18 -3 4 -2 7 4 7 6 0 10 14 9 30 -1 17 1 30 6 30 4 0 8 7 8 15 0 8 4 15 9 15 5 0 7 9 4 20 -3 11 -1 20 4 20 6 0 8 11 5 25 -2 14 1 32 7 39 7 8 14 32 15 53 2 21 6 46 10 56 3 9 9 25 12 35 4 9 9 37 11 62 3 25 12 51 21 58 10 7 11 12 4 12 -9 0 -8 8 3 29 8 17 11 32 6 35 -5 3 0 31 10 62 11 32 19 79 19 106 0 26 4 48 8 48 4 0 9 16 10 36 2 20 7 44 11 53 5 9 5 25 1 36 -4 11 -3 28 2 38 5 9 6 21 3 26 -3 5 4 12 15 16 11 4 18 10 15 14 -2 5 6 20 20 35 13 15 23 28 22 31 -1 2 7 15 18 27 11 13 20 30 22 38 1 8 10 20 19 27 10 7 12 13 6 13 -9 0 -8 7 3 23 8 13 12 27 8 30 -3 4 -1 7 6 7 7 0 9 5 6 10 -3 6 -2 10 2 10 5 0 9 8 9 18 1 24 8 46 16 53 4 3 12 29 18 59 6 30 14 56 18 59 4 4 7 13 7 21 -1 8 2 25 7 38 4 13 4 21 -1 18 -5 -3 -2 13 7 37 11 29 16 80 16 165 1 123 1 123 26 128 46 10 124 36 166 55 23 11 47 19 53 19 7 0 9 5 6 10 -3 6 0 10 7 10 13 0 35 21 97 87 11 12 28 37 37 55 9 18 20 35 24 38 5 3 10 14 12 25 1 11 5 22 9 25 12 11 49 110 49 132 0 13 5 29 11 35 6 6 12 29 14 51 1 21 5 44 9 51 4 6 2 11 -4 11 -7 0 -8 6 -1 19 6 10 8 20 6 22 -2 3 -6 17 -9 33 -3 16 -17 46 -31 68 -21 32 -29 37 -41 27 -8 -6 -14 -18 -14 -26 0 -7 -6 -16 -14 -19 -8 -3 -12 -12 -9 -20 3 -7 -2 -17 -11 -20 -9 -3 -13 -10 -10 -15 3 -5 1 -9 -5 -9 -6 0 -8 -7 -5 -15 4 -8 1 -15 -5 -15 -6 0 -11 -7 -11 -15 0 -8 -6 -14 -12 -12 -7 1 -12 -4 -11 -10 3 -12 -9 -17 -29 -14 -5 0 -8 -4 -8 -10 0 -5 -3 -8 -7 -6 -5 3 -17 1 -28 -3 -13 -5 -26 -2 -37 8 -14 11 -18 12 -18 2 0 -10 -5 -9 -18 3 -10 10 -24 17 -31 17 -7 0 -9 5 -6 10 3 6 3 10 -2 10 -14 0 -63 47 -56 54 3 3 -1 6 -10 6 -9 0 -17 6 -17 13 0 7 -9 23 -20 35 -12 12 -17 22 -13 22 4 0 0 7 -10 14 -10 8 -19 23 -20 35 -1 12 -5 21 -9 21 -4 0 -7 3 -6 8 4 14 -31 82 -43 82 -8 0 -8 4 1 15 10 12 10 15 0 15 -7 0 -10 6 -7 14 3 8 -1 17 -10 20 -9 4 -13 14 -10 26 3 13 0 20 -10 20 -8 0 -12 4 -8 9 3 5 1 12 -5 16 -5 3 -10 15 -10 25 0 10 -7 25 -15 33 -8 8 -11 17 -8 21 4 3 1 6 -7 6 -10 0 -10 3 0 15 7 9 8 15 2 15 -10 0 -56 86 -57 105 0 6 -2 12 -6 15 -3 3 -13 22 -22 42 -10 20 -22 40 -27 43 -6 4 -8 11 -5 16 4 5 1 9 -4 9 -6 0 -11 5 -11 11 0 6 -7 17 -15 26 -8 8 -13 19 -10 24 4 5 1 9 -5 9 -6 0 -9 4 -6 9 3 5 -1 11 -9 15 -8 3 -15 12 -15 19 0 8 -7 20 -15 27 -9 7 -13 15 -11 17 8 8 -18 31 -28 25 -5 -3 -6 -1 -3 5 3 5 -7 24 -23 42 -17 18 -30 39 -30 47 0 8 -7 14 -17 14 -9 0 -14 3 -10 6 3 3 1 11 -4 18 -39 47 -49 60 -49 68 0 4 -7 8 -15 8 -8 0 -15 7 -15 16 0 8 -4 12 -10 9 -5 -3 -10 0 -10 7 0 14 -56 78 -69 78 -4 0 -14 11 -21 25 -7 14 -19 25 -27 25 -7 0 -13 5 -13 11 0 5 -4 7 -10 4 -5 -3 -10 -1 -10 5 0 14 -51 59 -67 60 -7 0 -13 4 -13 9 0 19 -269 167 -475 262 -151 68 -396 151 -485 164 -25 3 -52 7 -60 8 -8 2 -19 5 -25 8 -5 3 -41 7 -80 8 -38 2 -79 7 -91 11 -13 5 -26 4 -33 -3 -8 -8 -11 -7 -11 3 0 10 -3 11 -11 3 -6 -6 -25 -7 -49 -3 -24 4 -43 3 -49 -3 -8 -8 -11 -7 -11 2 0 10 -3 11 -13 2 -8 -6 -16 -9 -18 -7 -2 2 -26 7 -54 11 -27 3 -57 8 -65 9 -9 1 -20 5 -25 8 -6 3 -25 5 -43 4 -17 0 -32 3 -32 8 0 4 -7 6 -15 2 -8 -3 -15 -2 -15 2 0 4 -28 7 -62 7 -38 0 -68 5 -77 13 -9 9 -17 10 -25 3 -9 -7 -16 -7 -24 1 -9 9 -12 9 -12 -1 0 -11 -3 -11 -15 -1 -12 10 -15 10 -15 -1 0 -10 -3 -10 -12 -1 -8 8 -63 12 -183 12 -120 0 -175 -4 -183 -12 -9 -9 -12 -9 -12 0 0 10 -5 10 -20 2 -14 -8 -20 -8 -20 0 0 7 -6 8 -19 0 -14 -7 -21 -6 -23 2 -3 8 -6 9 -11 1z m-1002 -4183 c3 -5 1 -10 -4 -10 -6 0 -11 5 -11 10 0 6 2 10 4 10 3 0 8 -4 11 -10z m274 -106 c-7 -8 -6 -14 1 -17 6 -3 6 -5 -1 -3 -17 3 -20 33 -3 33 10 0 11 -4 3 -13z m-558 -67 c-10 -9 -11 -8 -5 6 3 10 9 15 12 12 3 -3 0 -11 -7 -18z m1059 -121 c0 -3 -4 -8 -10 -11 -5 -3 -10 -1 -10 4 0 6 5 11 10 11 6 0 10 -2 10 -4z m3 -31 c-3 -9 -8 -14 -10 -11 -3 3 -2 9 2 15 9 16 15 13 8 -4z m1738 -108 c-10 -9 -11 -8 -5 6 3 10 9 15 12 12 3 -3 0 -11 -7 -18z m-341 -157 c7 -14 7 -20 0 -20 -5 0 -10 6 -10 14 0 8 -6 17 -12 19 -10 4 -10 6 -1 6 7 1 17 -8 23 -19z m1065 -10 c3 -5 1 -10 -4 -10 -6 0 -11 5 -11 10 0 6 2 10 4 10 3 0 8 -4 11 -10z m6 -43 c-10 -9 -11 -8 -5 6 3 10 9 15 12 12 3 -3 0 -11 -7 -18z" transform="translate(0.000000,789.000000) scale(0.100000,-0.100000)"/></g></svg>