<?xml version="1.0" standalone="no"?>
<!DOCTYPE svg PUBLIC "-//W3C//DTD SVG 20010904//EN"
 "http://www.w3.org/TR/2001/REC-SVG-20010904/DTD/svg10.dtd">
<svg version="1.0" xmlns="http://www.w3.org/2000/svg"
 width="700.000000pt" height="700.000000pt" viewBox="0 0 700.000000 700.000000"
 preserveAspectRatio="xMidYMid meet">
<metadata>
Created by potrace 1.11, written by Peter Selinger 2001-2013
</metadata>
<g transform="translate(0.000000,700.000000) scale(0.100000,-0.100000)"
fill="#000000" stroke="none">
<path d="M3815 6984 c-148 -19 -152 -20 -250 -44 -239 -60 -492 -181 -665
-319 -312 -249 -532 -628 -588 -1014 -9 -67 -9 -362 1 -451 4 -37 14 -100 22
-138 l14 -71 -40 -46 c-84 -94 -131 -233 -134 -394 -4 -243 83 -441 224 -507
37 -17 51 -29 52 -44 0 -12 2 -28 4 -36 1 -8 8 -40 14 -70 6 -30 13 -64 15
-75 7 -35 27 -107 51 -185 92 -297 252 -569 464 -789 39 -40 71 -74 71 -75 0
-1 -573 -2 -1272 -2 -700 -1 -1300 -4 -1333 -7 -224 -21 -379 -116 -435 -265
-37 -97 -32 -236 14 -382 8 -25 71 -202 141 -395 69 -192 135 -375 146 -405
11 -30 24 -64 28 -75 5 -11 82 -222 172 -470 89 -247 173 -468 188 -490 64
-98 148 -165 261 -206 l65 -24 2880 0 2880 0 0 515 c-1 283 -4 542 -7 575 -36
321 -191 597 -447 799 -76 59 -98 73 -217 131 -85 42 -229 87 -319 100 -61 9
-299 15 -607 15 l-278 0 0 228 0 229 46 33 c107 76 241 213 340 345 208 277
332 577 398 966 5 30 13 39 48 55 97 44 193 190 214 324 3 19 8 43 11 53 3 11
5 65 4 120 -1 163 -43 297 -129 404 -19 23 -31 46 -29 50 15 23 29 202 31 388
4 259 -35 435 -144 660 -99 205 -221 366 -411 540 -229 211 -573 380 -884 434
-33 5 -76 13 -95 16 -72 13 -415 12 -515 -1z"/>
</g>
</svg>
